<?xml version="1.0" encoding="iso-8859-1"?>
<!-- Generator: Adobe Illustrator 16.0.0, SVG Export Plug-In . SVG Version: 6.00 Build 0)  -->
<!DOCTYPE svg PUBLIC "-//W3C//DTD SVG 1.1//EN" "http://www.w3.org/Graphics/SVG/1.1/DTD/svg11.dtd">
<svg version="1.1" id="Capa_1" xmlns="http://www.w3.org/2000/svg" xmlns:xlink="http://www.w3.org/1999/xlink" x="0px" y="0px"
	 width="320.603px" height="320.603px" viewBox="0 0 320.603 320.603" style="enable-background:new 0 0 320.603 320.603;"
	 xml:space="preserve">
<g>
	<g>
		<rect x="41.875" y="42.294" width="100.122" height="23.963"/>
		<path d="M235.776,114.857c-0.592-0.194-1.153-0.496-1.673-0.908l-81.356-65.776v21.095l63.427,57.925
			c2.194,2,2.353,5.402,0.348,7.595c-0.179,0.192-0.415,0.274-0.609,0.436c-0.294,2.121-1.769,3.916-3.885,4.483
			c-8.83,2.33-15.234,11.889-15.234,22.729c0,10.857,6.404,20.422,15.234,22.741c0.462,0.116,0.883,0.346,1.282,0.579h22.466
			V114.857L235.776,114.857z"/>
		<polygon points="156.004,196.517 146.136,196.517 146.136,204.9 235.776,204.9 235.776,196.517 205.194,196.517 		"/>
		<path d="M114.432,128.375h87.104l-56.246-51.366H49.476l53.816,53.817C106.739,129.262,110.492,128.375,114.432,128.375z"/>
		<path d="M140.76,185.767h15.239h38.167c-5.093-6.136-8.121-14.363-8.121-23.319c0-8.957,3.028-17.188,8.126-23.322h-79.739
			c-10.648,0-19.32,10.462-19.32,23.322c0,12.857,8.667,23.319,19.32,23.319H140.76z"/>
		<path d="M192.532,274.11c4.384,0,7.932,3.548,7.932,7.926c0,4.384-3.548,7.932-7.932,7.932c-4.378,0-7.926-3.548-7.926-7.932
			C184.606,277.658,188.154,274.11,192.532,274.11z"/>
		<path d="M267.978,0H117.099c-5.929,0-10.751,4.822-10.751,10.751v20.793h41.024c0.231,0,0.435,0.107,0.661,0.128
			c0.38,0.047,0.745,0.097,1.118,0.226c0.354,0.123,0.667,0.322,0.984,0.517c0.203,0.124,0.428,0.17,0.617,0.325l85.024,68.736
			V69.618c0-2.974,2.405-5.375,5.376-5.375c2.966,0,5.376,2.402,5.376,5.375v43.115v78.408v19.14v26.878
			c0,2.971-2.41,5.375-5.376,5.375c-2.971,0-5.376-2.404-5.376-5.375v-21.503H140.76c-2.968,0-5.375-2.402-5.375-5.375v-13.764
			h-20.953c-2.8,0-5.504-0.473-8.078-1.291v114.625c0,5.927,4.821,10.752,10.75,10.752h150.874c5.932,0,10.75-4.825,10.75-10.752
			v-299.1C278.728,4.822,273.909,0,267.978,0z M192.532,52.909c-10.299,0-18.672-8.377-18.672-18.677
			c0-10.299,8.383-18.681,18.672-18.681c10.3,0,18.678,8.381,18.678,18.681C211.21,44.532,202.832,52.909,192.532,52.909z
			 M192.532,300.708c-10.299,0-18.672-8.378-18.672-18.677c0-10.3,8.383-18.678,18.672-18.678c10.3,0,18.678,8.378,18.678,18.678
			C211.21,292.33,202.832,300.708,192.532,300.708z"/>
		<path d="M192.532,26.303c4.384,0,7.932,3.548,7.932,7.929c0,4.377-3.548,7.926-7.932,7.926c-4.378,0-7.926-3.549-7.926-7.926
			C184.606,29.851,188.154,26.303,192.532,26.303z"/>
	</g>
</g>
<g>
</g>
<g>
</g>
<g>
</g>
<g>
</g>
<g>
</g>
<g>
</g>
<g>
</g>
<g>
</g>
<g>
</g>
<g>
</g>
<g>
</g>
<g>
</g>
<g>
</g>
<g>
</g>
<g>
</g>
</svg>
